<svg width="20" height="20" viewBox="0 0 20 20" fill="none" xmlns="http://www.w3.org/2000/svg">
<path d="M19.9083 19.0604C18.3602 16.2761 15.9299 14.3224 13.106 13.4938C14.4789 12.7674 15.5768 11.5809 16.2226 10.1255C16.8684 8.67022 17.0245 7.03094 16.6656 5.47201C16.3068 3.91308 15.454 2.52536 14.2447 1.53263C13.0354 0.539895 11.5402 0 10 0C8.45985 0 6.96458 0.539895 5.7553 1.53263C4.54602 2.52536 3.69321 3.91308 3.33438 5.47201C2.97555 7.03094 3.13162 8.67022 3.77741 10.1255C4.42321 11.5809 5.5211 12.7674 6.89405 13.4938C4.0701 14.3213 1.63978 16.2751 0.0917004 19.0604C0.0491921 19.13 0.0206493 19.2079 0.00778935 19.2893C-0.00507063 19.3706 -0.00198197 19.4539 0.0168692 19.534C0.0357204 19.6141 0.0699446 19.6894 0.117483 19.7554C0.165022 19.8214 0.224892 19.8766 0.293492 19.9179C0.362093 19.9592 0.438005 19.9856 0.516663 19.9955C0.595322 20.0055 0.675099 19.9988 0.751198 19.9758C0.827297 19.9528 0.898143 19.914 0.959476 19.8618C1.02081 19.8096 1.07136 19.745 1.10809 19.6719C2.98909 16.2893 6.31242 14.2704 10 14.2704C13.6876 14.2704 17.0109 16.2893 18.8919 19.6719C18.9286 19.745 18.9792 19.8096 19.0405 19.8618C19.1019 19.914 19.1727 19.9528 19.2488 19.9758C19.3249 19.9988 19.4047 20.0055 19.4833 19.9955C19.562 19.9856 19.6379 19.9592 19.7065 19.9179C19.7751 19.8766 19.835 19.8214 19.8825 19.7554C19.9301 19.6894 19.9643 19.6141 19.9831 19.534C20.002 19.4539 20.0051 19.3706 19.9922 19.2893C19.9794 19.2079 19.9508 19.13 19.9083 19.0604ZM4.32077 7.13624C4.32077 5.96713 4.65385 4.82427 5.27789 3.85219C5.90193 2.88011 6.78891 2.12246 7.82665 1.67506C8.8644 1.22766 10.0063 1.1106 11.108 1.33868C12.2096 1.56676 13.2216 2.12975 14.0158 2.95643C14.8101 3.78312 15.351 4.83639 15.5701 5.98304C15.7892 7.12969 15.6768 8.31822 15.2469 9.39834C14.8171 10.4785 14.0892 11.4017 13.1552 12.0512C12.2213 12.7007 11.1232 13.0474 10 13.0474C8.49433 13.0455 7.05085 12.4221 5.98618 11.314C4.92151 10.2058 4.32258 8.7034 4.32077 7.13624Z" fill="#151515"/>
</svg>
